<?xml version="1.0" encoding="utf-8"?>
<!-- Generator: Adobe Illustrator 17.0.0, SVG Export Plug-In . SVG Version: 6.00 Build 0)  -->
<!DOCTYPE svg PUBLIC "-//W3C//DTD SVG 1.1//EN" "http://www.w3.org/Graphics/SVG/1.1/DTD/svg11.dtd">
<svg version="1.1" id="Capa_1" xmlns="http://www.w3.org/2000/svg" xmlns:xlink="http://www.w3.org/1999/xlink" x="0px" y="0px"
	 width="1920px" height="1080px" viewBox="0 0 1920 1080" enable-background="new 0 0 1920 1080" xml:space="preserve">
<line fill="none" stroke="#000000" stroke-width="16" stroke-miterlimit="10" x1="983.321" y1="529.04" x2="1460.369" y2="529.04"/>
<line fill="none" stroke="#000000" stroke-width="16" stroke-miterlimit="10" x1="920.315" y1="529.04" x2="518.275" y2="529.04"/>
<rect x="138.622" y="401.987" fill="#FFFFFF" stroke="#211915" stroke-width="18" stroke-miterlimit="10" width="502.902" height="253.123"/>
<text transform="matrix(1 0 0 1 158.4807 567.3534)" font-family="'ArialMT'" font-size="87">Ciudadanos</text>
<rect x="1261.94" y="402.478" fill="#FFFFFF" stroke="#211915" stroke-width="18" stroke-miterlimit="10" width="502.902" height="253.123"/>
<rect x="1289.352" y="424.346" fill="#FFFFFF" stroke="#211915" stroke-width="18" stroke-miterlimit="10" width="453.045" height="209.388"/>
<text transform="matrix(1 0 0 1 1413.7986 567.8444)" font-family="'ArialMT'" font-size="91.9942">Hijos</text>
<rect x="862.304" y="448.022" transform="matrix(-0.7071 -0.7071 0.7071 -0.7071 1236.2523 1570.132)" fill="#FFFFFF" stroke="#000000" stroke-width="16" stroke-miterlimit="10" width="162.014" height="162.014"/>
<rect x="881.241" y="466.959" transform="matrix(-0.7071 -0.7071 0.7071 -0.7071 1236.2524 1570.1318)" fill="#FFFFFF" stroke="#000000" stroke-width="16" stroke-miterlimit="10" width="124.141" height="124.141"/>
<text transform="matrix(1 0 0 1 928.0918 584.0833)" font-family="'ArialMT'" font-size="46">E</text>
</svg>
